<?xml version="1.0" encoding="iso-8859-1"?>
<!-- Generator: Adobe Illustrator 19.0.0, SVG Export Plug-In . SVG Version: 6.00 Build 0)  -->
<svg version="1.1" id="Layer_1" xmlns="http://www.w3.org/2000/svg" xmlns:xlink="http://www.w3.org/1999/xlink" x="0px" y="0px"
	 viewBox="0 0 512 512" style="enable-background:new 0 0 512 512;" xml:space="preserve">
<path style="fill:#475BA3;" d="M256,65.218c-8.284,0-15-6.716-15-15V15c0-8.284,6.716-15,15-15c8.284,0,15,6.716,15,15v35.218
	C271,58.502,264.284,65.218,256,65.218z"/>
<path style="fill:#404F94;" d="M256,0v65.218c8.284,0,15-6.716,15-15V15C271,6.716,264.284,0,256,0z"/>
<path style="fill:#FF7560;" d="M338.567,462.445H173.433c-8.718,0-15.591-7.413-14.961-16.088l16.514-227.018
	c0.571-7.842,7.099-13.912,14.961-13.912h132.106c7.862,0,14.389,6.07,14.961,13.912l16.514,227.018
	C354.159,455.052,347.265,462.445,338.567,462.445z"/>
<path style="fill:#FE5947;" d="M353.527,446.357L337.014,219.34c-0.571-7.842-7.099-13.912-14.961-13.912H256v257.018h82.566
	C347.265,462.445,354.159,455.052,353.527,446.357z"/>
<path style="fill:#FF7560;" d="M306.546,115.169H205.454c-8.284,0-15-6.716-15-15v-1.227c0-35.138,28.587-63.725,63.725-63.725
	h3.643c35.138,0,63.725,28.587,63.725,63.725v1.227C321.546,108.453,314.83,115.169,306.546,115.169z"/>
<path style="fill:#FE5947;" d="M257.821,35.218H256v79.951h50.546c8.284,0,15-6.716,15-15v-1.227
	C321.546,63.805,292.959,35.218,257.821,35.218z"/>
<path style="fill:#FFD664;" d="M306.546,185.874H205.454c-8.284,0-15-6.716-15-15v-70.705c0-8.284,6.716-15,15-15h101.093
	c8.284,0,15,6.716,15,15v70.705C321.546,179.158,314.83,185.874,306.546,185.874z"/>
<path style="fill:#FFBB54;" d="M306.546,85.169H256v100.705h50.546c8.284,0,15-6.716,15-15v-70.705
	C321.546,91.885,314.831,85.169,306.546,85.169z"/>
<path style="fill:#FFFAFD;" d="M337.554,226.769l-175.908,175.96c-3.451,47.443-3.265,44.021-3.171,45.605l181.956-182.01
	L337.554,226.769z"/>
<g>
	<path style="fill:#FFD664;" d="M108.963,121.668l-47.425-7.896c-8.171-1.36-13.693-9.088-12.332-17.259
		c1.359-8.172,9.098-13.701,17.259-12.333l47.424,7.896c8.172,1.36,13.694,9.088,12.333,17.259
		C124.858,117.526,117.103,123.033,108.963,121.668z"/>
	<path style="fill:#FFD664;" d="M49.206,174.529c-1.361-8.171,4.161-15.898,12.332-17.259l47.425-7.896
		c8.171-1.372,15.898,4.161,17.259,12.333c1.361,8.171-4.161,15.898-12.333,17.259l-47.424,7.896
		C58.323,188.227,50.57,182.721,49.206,174.529z"/>
</g>
<g>
	<path style="fill:#FE5947;" d="M363.336,512H148.664c-8.284,0-15-6.716-15-15v-49.555c0-8.284,6.716-15,15-15h214.672
		c8.284,0,15,6.716,15,15V497C378.336,505.284,371.62,512,363.336,512z"/>
	<path style="fill:#FE5947;" d="M338.567,235.428H173.433c-8.284,0-15-6.716-15-15v-49.554c0-8.284,6.716-15,15-15h165.133
		c8.284,0,15,6.716,15,15v49.554C353.566,228.712,346.851,235.428,338.567,235.428z"/>
	<path style="fill:#FE5947;" d="M338.567,115.169H173.433c-8.284,0-15-6.716-15-15s6.716-15,15-15h165.133c8.284,0,15,6.716,15,15
		S346.851,115.169,338.567,115.169z"/>
</g>
<polygon style="fill:#FBF3F6;" points="337.554,226.769 256,308.347 256,350.781 340.432,266.325 "/>
<g>
	<path style="fill:#FFBB54;" d="M385.778,109.335c-1.361-8.171,4.161-15.898,12.333-17.259l47.424-7.896
		c8.165-1.371,15.898,4.16,17.259,12.333c1.361,8.171-4.161,15.898-12.332,17.259l-47.425,7.896
		C394.896,123.033,387.142,117.528,385.778,109.335z"/>
	<path style="fill:#FFBB54;" d="M445.535,186.862l-47.424-7.896c-8.172-1.36-13.694-9.088-12.333-17.259
		c1.359-8.172,9.095-13.705,17.259-12.333l47.425,7.896c8.171,1.36,13.693,9.088,12.332,17.259
		C461.431,182.719,453.677,188.227,445.535,186.862z"/>
</g>
<g>
	<path style="fill:#ED433C;" d="M363.336,432.445H256V512h107.336c8.284,0,15-6.716,15-15v-49.555
		C378.336,439.161,371.62,432.445,363.336,432.445z"/>
	<path style="fill:#ED433C;" d="M338.566,155.874H256v79.554h82.566c8.284,0,15-6.716,15-15v-49.554
		C353.566,162.59,346.851,155.874,338.566,155.874z"/>
	<path style="fill:#ED433C;" d="M338.566,85.169H256v30h82.566c8.284,0,15-6.716,15-15S346.851,85.169,338.566,85.169z"/>
</g>
<g>
</g>
<g>
</g>
<g>
</g>
<g>
</g>
<g>
</g>
<g>
</g>
<g>
</g>
<g>
</g>
<g>
</g>
<g>
</g>
<g>
</g>
<g>
</g>
<g>
</g>
<g>
</g>
<g>
</g>
</svg>
