<?xml version="1.0" encoding="iso-8859-1"?>
<!-- Generator: Adobe Illustrator 19.0.0, SVG Export Plug-In . SVG Version: 6.00 Build 0)  -->
<svg version="1.1" id="cut" xmlns="http://www.w3.org/2000/svg" xmlns:xlink="http://www.w3.org/1999/xlink" x="0px" y="0px"
	 viewBox="0 0 484.541 484.541" style="enable-background:new 0 0 484.541 484.541;" xml:space="preserve">
<g>
	<g>
		<path fill="currentColor" d="M417.289,260.641c-18.1-5.6-37.6-5.7-55.8-0.1l-62.5-58.5c0-0.3,0-0.6,0-0.9c0-2.9-0.2-5.8-0.7-8.7l109.9-128.1
			c3.4-4,3.2-9.9-0.5-13.6l-1-1c-15.8-15.9-41.3-16.3-57.6-0.9l-102.2,95.8c-1.5-0.1-3-0.2-4.6-0.2c-1.5,0-3,0.1-4.6,0.2
			l-102.2-95.8c-16.2-15.4-41.8-15-57.6,0.9l-1,1c-3.7,3.7-3.9,9.6-0.5,13.6l109.9,128.1c-0.4,2.9-0.7,5.7-0.7,8.6c0,0.3,0,0.6,0,1
			l-62.5,58.5c-50.3-15.3-103.5,13-118.9,63.3c-15.4,50.3,13,103.5,63.3,118.9c50.3,15.4,103.5-13,118.9-63.3
			c5.6-18.2,5.5-37.7-0.1-55.9l56-65.7l55.9,65.8c-15.5,50.3,12.7,103.6,63,119.1s103.6-12.7,119.1-63
			S467.589,276.141,417.289,260.641z M362.789,63.441c6.2-5.9,15.5-7.5,23.3-4l-95.8,111.6c-5.2-8.3-12.6-15.2-21.2-19.9
			L362.789,63.441z M98.489,59.441c7.9-3.5,17.1-2,23.3,4l93.6,87.7c-8.7,4.7-16,11.5-21.2,19.9L98.489,59.441z M148.489,404.84
			c-29.4,29.4-77,29.3-106.4-0.1c-29.4-29.4-29.3-77,0.1-106.4c29.4-29.4,77-29.3,106.4,0.1c7.5,7.5,13.3,16.5,17.1,26.4
			C176.189,352.641,169.489,383.941,148.489,404.84z M177.389,303.241c-8.3-14.1-20.1-25.8-34.3-34l47.7-44.6
			c5.9,12.8,16.3,23,29.2,28.5L177.389,303.241z M245.489,237.641c-1.1,0.1-2.2,0.2-3.2,0.2c-1.1,0-2.2,0-3.3-0.2h-0.1
			c-17.3-1.6-31.1-15.2-33-32.5c0-0.1,0-0.2,0-0.2c-0.2-1.2-0.2-2.5-0.2-3.7c0-3,0.4-6.1,1.1-9c3.5-14,14.9-24.6,29.1-27.1
			c2.1-0.4,4.3-0.5,6.5-0.5c2.3,0,4.6,0.2,6.9,0.7c14,2.7,25.1,13.2,28.7,27c0.7,3,1.1,6,1.1,9c0,1.4-0.1,2.7-0.3,4
			c0,0.1,0,0.2,0,0.3c-2.1,17-15.7,30.4-32.7,32.1C245.789,237.54,245.689,237.54,245.489,237.641z M264.589,253.141
			c12.9-5.6,23.3-15.7,29.2-28.5l47.7,44.6c-14.2,8.3-26,20-34.4,34.1L264.589,253.141z M442.489,404.84
			c-29.4,29.4-77.1,29.4-106.4,0c-29.4-29.4-29.4-77.1,0-106.4c7.5-7.5,16.6-13.4,26.5-17.1c38.9-14.7,82.3,4.9,97.1,43.8
			C470.189,352.641,463.389,383.941,442.489,404.84z"/>
	</g>
</g>
<g>
	<g>
		<path fill="currentColor" d="M389.289,295.441c-31.1-0.1-56.4,25.1-56.5,56.2c0,31.2,25.2,56.6,56.4,56.8c31.2,0,56.5-25.3,56.5-56.5
			S420.489,295.441,389.289,295.441z M415.089,377.54c-6.8,7-16.1,10.9-25.8,10.9c-20.2,0-36.5-16.3-36.5-36.5s16.3-36.5,36.5-36.5
			c20.1,0,36.4,16.2,36.5,36.3C425.789,361.441,421.989,370.741,415.089,377.54z"/>
	</g>
</g>
<g>
	<g>
		<path fill="currentColor" d="M95.289,295.441c-15-0.1-29.4,5.8-40,16.4c-22.1,22.1-22,58,0.1,80.1c10.7,10.5,25,16.5,39.9,16.5
			c31.2,0,56.5-25.3,56.5-56.5S126.489,295.441,95.289,295.441z M121.089,377.441v0.2c-6.8,6.9-16,10.8-25.7,10.8
			c-20.2,0-36.5-16.3-36.5-36.5s16.2-36.5,36.4-36.5c20-0.1,36.3,16.1,36.4,36.1C131.789,361.241,127.889,370.54,121.089,377.441z"
			/>
	</g>
</g>
<g>
	<g>
		<path fill="currentColor" d="M242.289,175.641c-14.1,0-25.5,11.4-25.4,25.5c0.1,14.1,11.4,25.5,25.5,25.4c14,0,25.4-11.4,25.4-25.4
			C267.789,187.04,256.389,175.641,242.289,175.641z M242.289,206.54c-3,0-5.5-2.5-5.4-5.5c0-3,2.5-5.5,5.5-5.4c3,0,5.5,2.5,5.4,5.5
			C247.789,204.141,245.289,206.54,242.289,206.54z"/>
	</g>
</g>
<g>
</g>
<g>
</g>
<g>
</g>
<g>
</g>
<g>
</g>
<g>
</g>
<g>
</g>
<g>
</g>
<g>
</g>
<g>
</g>
<g>
</g>
<g>
</g>
<g>
</g>
<g>
</g>
<g>
</g>
</svg>
